HIERARCHY
ROOT hip
{
  OFFSET 0 0 0
  CHANNELS 6 Xposition Yposition Zposition Zrotation Yrotation Xrotation
  JOINT abdomen
  {
    OFFSET 0 20.6881 -0.73152
    CHANNELS 3 Zrotation Xrotation Yrotation
    JOINT chest
    {
      OFFSET 0 11.7043 -0.48768
      CHANNELS 3 Zrotation Xrotation Yrotation
      JOINT neck
      {
        OFFSET 0 22.1894 -2.19456
        CHANNELS 3 Zrotation Xrotation Yrotation
        JOINT head
        {
          OFFSET -0.24384 7.07133 1.2192
          CHANNELS 3 Zrotation Xrotation Yrotation
          JOINT leftEye
          {
            OFFSET 4.14528 8.04674 8.04672
            CHANNELS 3 Zrotation Xrotation Yrotation
            End Site
            {
              OFFSET 1 0 0
            }
          }
          JOINT rightEye
          {
            OFFSET -3.6576 8.04674 8.04672
            CHANNELS 3 Zrotation Xrotation Yrotation
            End Site
            {
              OFFSET 1 0 0
            }
          }
        }
      }
      JOINT rCollar
      {
        OFFSET -2.68224 19.2634 -4.8768
        CHANNELS 3 Zrotation Xrotation Yrotation
        JOINT rShldr
        {
          OFFSET -8.77824 -1.95073 1.46304
          CHANNELS 3 Zrotation Xrotation Yrotation
          JOINT rForeArm
          {
            OFFSET -28.1742 -1.7115 0.48768
            CHANNELS 3 Zrotation Xrotation Yrotation
            JOINT rHand
            {
              OFFSET -22.5879 0.773209 7.07136
              CHANNELS 3 Zrotation Xrotation Yrotation
              JOINT rThumb1
              {
                OFFSET -1.2192 -0.487915 3.41376
                CHANNELS 3 Zrotation Xrotation Yrotation
                JOINT rThumb2
                {
                  OFFSET -3.37035 -0.52449 3.41376
                  CHANNELS 3 Zrotation Xrotation Yrotation
                  End Site
                  {
                    OFFSET -1.78271 -1.18214 1.43049
                  }
                }
              }
              JOINT rIndex1
              {
                OFFSET -7.75947 0.938293 5.60832
                CHANNELS 3 Zrotation Xrotation Yrotation
                JOINT rIndex2
                {
                  OFFSET -2.54057 -0.884171 1.56538
                  CHANNELS 3 Zrotation Xrotation Yrotation
                  End Site
                  {
                    OFFSET -1.62519 -0.234802 1.16502
                  }
                }
              }
              JOINT rMid1
              {
                OFFSET -8.24714 1.18213 3.41376
                CHANNELS 3 Zrotation Xrotation Yrotation
                JOINT rMid2
                {
                  OFFSET -3.10165 -0.590103 1.0647
                  CHANNELS 3 Zrotation Xrotation Yrotation
                  End Site
                  {
                    OFFSET -2.48547 -0.328903 0.83742
                  }
                }
              }
              JOINT rRing1
              {
                OFFSET -8.82822 0.546677 1.51678
                CHANNELS 3 Zrotation Xrotation Yrotation
                JOINT rRing2
                {
                  OFFSET -2.60934 -0.819778 -0.0198488
                  CHANNELS 3 Zrotation Xrotation Yrotation
                  End Site
                  {
                    OFFSET -2.33842 -0.294052 0.168128
                  }
                }
              }
              JOINT rPinky1
              {
                OFFSET -8.27202 -0.0477905 -0.4584
                CHANNELS 3 Zrotation Xrotation Yrotation
                JOINT rPinky2
                {
                  OFFSET -1.82734 -0.647385 -0.700984
                  CHANNELS 3 Zrotation Xrotation Yrotation
                  End Site
                  {
                    OFFSET -1.69225 -0.51767 -0.607171
                  }
                }
              }
            }
          }
        }
      }
      JOINT lCollar
      {
        OFFSET 2.68224 19.2634 -4.8768
        CHANNELS 3 Zrotation Xrotation Yrotation
        JOINT lShldr
        {
          OFFSET 8.77824 -1.95073 1.46304
          CHANNELS 3 Zrotation Xrotation Yrotation
          JOINT lForeArm
          {
            OFFSET 28.1742 -1.7115 0.48768
            CHANNELS 3 Zrotation Xrotation Yrotation
            JOINT lHand
            {
              OFFSET 22.5879 0.773209 7.07136
              CHANNELS 3 Zrotation Xrotation Yrotation
              JOINT lThumb1
              {
                OFFSET 1.2192 -0.487915 3.41376
                CHANNELS 3 Zrotation Xrotation Yrotation
                JOINT lThumb2
                {
                  OFFSET 3.37035 -0.52449 3.41376
                  CHANNELS 3 Zrotation Xrotation Yrotation
                  End Site
                  {
                    OFFSET 1.78271 -1.18214 1.43049
                  }
                }
              }
              JOINT lIndex1
              {
                OFFSET 7.75947 0.938293 5.60832
                CHANNELS 3 Zrotation Xrotation Yrotation
                JOINT lIndex2
                {
                  OFFSET 2.54057 -0.884171 1.56538
                  CHANNELS 3 Zrotation Xrotation Yrotation
                  End Site
                  {
                    OFFSET 1.62519 -0.234802 1.16502
                  }
                }
              }
              JOINT lMid1
              {
                OFFSET 8.24714 1.18213 3.41376
                CHANNELS 3 Zrotation Xrotation Yrotation
                JOINT lMid2
                {
                  OFFSET 3.10165 -0.590103 1.0647
                  CHANNELS 3 Zrotation Xrotation Yrotation
                  End Site
                  {
                    OFFSET 2.48547 -0.328903 0.83742
                  }
                }
              }
              JOINT lRing1
              {
                OFFSET 8.82822 0.546677 1.51678
                CHANNELS 3 Zrotation Xrotation Yrotation
                JOINT lRing2
                {
                  OFFSET 2.60934 -0.819778 -0.0198488
                  CHANNELS 3 Zrotation Xrotation Yrotation
                  End Site
                  {
                    OFFSET 2.33842 -0.294052 0.168128
                  }
                }
              }
              JOINT lPinky1
              {
                OFFSET 8.27202 -0.0477905 -0.4584
                CHANNELS 3 Zrotation Xrotation Yrotation
                JOINT lPinky2
                {
                  OFFSET 1.82734 -0.647385 -0.700984
                  CHANNELS 3 Zrotation Xrotation Yrotation
                  End Site
                  {
                    OFFSET 1.69225 -0.51767 -0.607171
                  }
                }
              }
            }
          }
        }
      }
    }
  }
  JOINT rButtock
  {
    OFFSET -8.77824 4.35084 1.2192
    CHANNELS 3 Zrotation Xrotation Yrotation
    JOINT rThigh
    {
      OFFSET 0 -1.70687 -2.19456
      CHANNELS 3 Zrotation Xrotation Yrotation
      JOINT rShin
      {
        OFFSET 0 -36.8199 0.73152
        CHANNELS 3 Zrotation Xrotation Yrotation
        JOINT rFoot
        {
          OFFSET 0.73152 -45.1104 -5.12064
          CHANNELS 3 Zrotation Xrotation Yrotation
          End Site
          {
            OFFSET -1.1221 -3.69964 12.103
          }
        }
      }
    }
  }
  JOINT lButtock
  {
    OFFSET 8.77824 4.35084 1.2192
    CHANNELS 3 Zrotation Xrotation Yrotation
    JOINT lThigh
    {
      OFFSET 0 -1.70687 -2.19456
      CHANNELS 3 Zrotation Xrotation Yrotation
      JOINT lShin
      {
        OFFSET 0 -36.8199 0.73152
        CHANNELS 3 Zrotation Xrotation Yrotation
        JOINT lFoot
        {
          OFFSET -0.73152 -45.1104 -5.12064
          CHANNELS 3 Zrotation Xrotation Yrotation
          End Site
          {
            OFFSET 1.1221 -3.69964 12.103
          }
        }
      }
    }
  }
}
MOTION
Frames:	4
Frame Time:	0.03333
14.086634758859873 56.866586208343506 -49.88232599571347 0.7860010942121424 49.646380869112825 4.183986055347636 -5.868788817914681 13.446841013361515 -2.716883833187111 6.027709390654307 -11.550754032782942 -0.5300273753480439 -9.831901923429736 20.10261276518153 -14.365545852957837 11.235113915763728 -30.753339964427198 -26.03997668236314 0.07997713959091228 -0.12247468332843739 0.44295777799516095 0.15887959160460535 -0.11637009503603271 -0.21850941089506454 -0.12647050407545352 -0.003842835181778424 0.07541373279191073 49.756968461964505 -4.115351191925471 32.978974180948775 -27.953496867024523 -30.97405752745616 68.27886030224623 -0.9492205239823504 23.67209523863958 3.769828143513804 0.08124339263000917 0.06541992539635236 -0.03344962416052096 0.12319110613934826 0.14265642490237057 0.07186010009258681 -0.1571694829911634 0.049105218150983544 -0.08515015411355069 7.76134885956059 5.2236765970333305 0.3363113643771405 -0.1735528122933497 -0.09418548052927263 0.06783530440245102 2.8595387373051744 0.7739153412800692 -0.017177672298530837 -0.0830525923472692 0.16304542002893133 0.15543429477686282 10.055520609308662 0.7148205445811189 0.19572016456419963 0.14059277395810113 -0.3078608517196871 0.16156342906159724 1.825731763259211 -0.8968201664436588 -0.13080732735286782 0.14423049002136762 -0.0699012231829683 -0.04223804990991752 -92.25293357201771 76.82451295401022 17.20102375480776 27.26908288388527 -41.97036839304238 -87.11138573088554 20.796044305572487 -73.78933398120745 28.15810542889601 -0.013976381310844372 0.2441204058072174 0.1396407629816777 -0.11963044314765599 -0.09615156115403138 0.26483130027884144 -0.08039901049386634 -0.47423188018332707 0.12495687012235523 -7.471420135898242 5.2647781141375285 -0.23565860183836493 -0.17174366593694257 0.02747363552358293 -0.29266941710809447 -2.865263929933526 0.9090275287594698 0.18451077025936413 -0.14235320185581904 -0.07817599736243876 0.06938975940801072 -9.963351475327572 0.7967756642669845 -0.03228705125859074 -0.1565774976891937 -0.29327986526516436 -0.45476605449220225 -1.9453851515736098 -0.29971200915303875 0.2340858974211166 0.07436122998928085 0.008550596428062603 -0.07690195363881981 -56.054631688053455 -49.41897313579184 -58.729361087787126 -1.8685024078418306 69.42292381841253 1.999680459720157 0.5130513670528003 -1.618279708258883 3.6729056247572074 -0.20777382094325897 0.26792729696356127 0.10462056883802406 32.000054393629625 -20.676521117739142 30.836029649613955 1.9602946007581015 69.7295788215786 -5.489105005256019 8.217444132898299 -21.006374858421154 24.26676736627403
14.191036764532328 56.92192316055298 -49.86993451602757 0.5798698270425656 49.706462628146845 3.963020897961261 -5.674029388826352 13.50747431017101 -2.7095911121442415 6.022177791200242 -11.555512113313503 -0.528406592802341 -9.778274693161382 20.180881610428 -14.382488137194052 11.23093383999168 -30.89132686113438 -26.065425967210604 0.08942638614250757 -0.1268641470872284 0.43664849747106743 0.1748558309600883 -0.11054351678718871 -0.2103869285897442 -0.08766489102773187 -0.011403961314688321 0.0481506625288879 49.80306540867292 -4.188211381122935 33.09391601939634 -27.94775267793254 -30.88927438928879 68.15833478415219 -0.9363404947549988 23.75257535762984 3.767659985339148 0.07437243576838791 0.06093494571088696 -0.05784279100757525 0.11330205943822762 0.1561676596585665 0.08834556206720594 -0.13613356756458195 0.03163861017426266 -0.10751881020193088 7.787207101984611 5.220578252471084 0.3517122670167557 -0.18672627285074733 -0.10295501653674588 0.0779255215189697 2.8193435009264722 0.7828171054810057 -0.019652335212191084 -0.08310531286992523 0.1702839264452639 0.15821130028300193 10.071100270805461 0.7121273156140183 0.19836921074510677 0.13851522251165366 -0.34320708067450306 0.18349527320821396 1.8202390105060513 -0.8888885025482757 -0.12512749144947333 0.13794244711672463 -0.05677402648502693 -0.02717662901639316 -92.40875750774238 76.99002209797796 17.185275046129004 27.272836072834195 -41.979650620124424 -87.22751943734328 20.827727845584885 -73.82463239883808 28.17184606195878 0.012951532770225116 0.22739028432209427 0.13398760750472857 -0.15555713146021727 -0.1009937383887473 0.26712784466555245 -0.09263358684465169 -0.4361782549549679 0.1260823572315264 -7.487308863454984 5.280715506792107 -0.2394051740415285 -0.20697207412857585 0.039153792612833645 -0.29536638133489745 -2.843976364724712 0.9254834821824404 0.19701802056842108 -0.14289284016110293 -0.08033903289521717 0.07255309748907865 -9.950680620643551 0.8096087359437922 -0.01634880483036599 -0.16148039957449928 -0.2805815831027586 -0.4487221908503872 -1.9302539346845045 -0.3108074380163129 0.23787174321200774 0.08335018582384075 0.006749560921294866 -0.06466855122679807 -56.08869384144431 -49.42332396629314 -58.89456287324223 -1.8557180012628594 69.38554219308506 1.9826784113287026 0.44487284564455615 -1.4351290394386373 3.5555232743418377 -0.21384159024716906 0.2943865960345444 0.1102053157015673 32.319314510908946 -20.863506084004705 31.145461124677627 2.044101021874158 70.2092151956644 -5.555059873202601 8.303403771150203 -21.135513245058583 24.328869153755083
14.22419399023056 56.95167779922485 -49.7969638556242 0.3295299470266699 49.69945143896383 3.7025627330202258 -5.506764032468264 13.526759349292542 -2.726321660516188 6.029812662031848 -11.530074781297083 -0.5332309475121914 -9.74019468099127 20.25723117251769 -14.406929969138943 11.259921162829215 -30.903774880896727 -26.095676875044592 0.10449292967790945 -0.1267437650031069 0.43264504612208793 0.1832586711864965 -0.09137715220248668 -0.20866870912666288 -0.04428230418416119 -0.0024394447507523668 0.03110704603303179 50.086166504486194 -4.110803139711888 32.68713385809247 -27.91187881686434 -30.774636494259298 67.96665918547411 -0.9417491508040027 23.59192247816197 3.7475002551170324 0.07186042025770416 0.06611020138934678 -0.09006506219075665 0.09605289693703643 0.17914228159237378 0.10801021029620156 -0.1177710308678258 0.011008023786239144 -0.1379524255962152 7.80997980645108 5.2257990783179125 0.3650140604253555 -0.19826603753604255 -0.10531260573916387 0.09622840078219402 2.7816310383110703 0.7883644997475254 -0.01405414141371938 -0.09150239012422122 0.17201089708821932 0.15243370729711161 10.078804724189236 0.690883292861163 0.18793652367473543 0.1406735622893777 -0.3835884397080878 0.18271278966142437 1.8164456941957554 -0.8976761812457318 -0.13230516649351048 0.1216111446461068 -0.04377265467820187 -0.03139128262111415 -92.43004037719614 76.91454167746015 17.072672547472173 27.251749571319074 -41.90358963352716 -87.11732799546346 20.654497172760436 -73.57908026798695 28.04745465679451 0.03292780838010256 0.21876887804224568 0.12007974152899589 -0.20234659531744917 -0.09235696418326617 0.2616783142032343 -0.09445842129180869 -0.39973433989533685 0.13806133509696517 -7.500259755894975 5.310819565558938 -0.23456107581610852 -0.22950636230432886 0.048401335140501996 -0.29542438458198966 -2.8283913671426237 0.950777913834819 0.19332512938326557 -0.1425990353050866 -0.07983946859045421 0.06092592772674843 -9.930871364503222 0.8170223726793122 -0.004685616492334528 -0.1532580791134204 -0.2690657774404113 -0.42796866105730347 -1.9136251988198738 -0.3380180578959974 0.2211390604059459 0.08330664336788193 0.016956424862232672 -0.04563398794873613 -56.08460255813147 -49.36831362271786 -58.97821220000738 -1.91730112125381 69.28453052544974 2.008554156112473 0.40160850645099133 -1.332492640554502 3.5306396145350116 -0.2133621429839459 0.32730896160765216 0.10006547299186025 32.5997552480405 -20.933664079611784 31.376236141259437 2.054078220704254 70.45090826963447 -5.554770017049699 8.351264614211775 -21.22560856285293 24.30874570891293
14.17483426630497 56.98333978652954 -49.67660713009536 0.05503702400172806 49.75113206531873 3.4661788504693702 -5.373128393149202 13.533070444085634 -2.7394731897630473 6.066987247250111 -11.510502874230411 -0.5253063272493899 -9.718698368125946 20.350832084903548 -14.460075671070813 11.32199392200629 -30.891173181878056 -26.191811787612522 0.11095631634515137 -0.13139341628059312 0.42098703378678687 0.17864743972309163 -0.06930048670112453 -0.2104547502337683 0.005161541939266902 0.007857065423041855 0.015171307564892898 50.48804800506058 -4.083132335836874 32.210919408780846 -27.907582627876405 -30.722395792392454 67.86732774437462 -0.9458540944951803 23.426047919073625 3.722614887762914 0.06465542445698695 0.06943223464691173 -0.12626677233911673 0.08060092796120484 0.21177030870093624 0.12614340204723337 -0.09241352668733034 0.003882749099740686 -0.17135439851510473 7.834357605372502 5.251930528308734 0.3849544775420904 -0.2012487491300754 -0.10882556412837184 0.10958099372274582 2.753006569273193 0.7836605271217965 -0.004394119493205723 -0.10382917402880172 0.1747097823057264 0.16026622672782373 10.09746480100171 0.671321844521658 0.1667151259235058 0.14961694795556893 -0.41673235954239785 0.18153757023735906 1.8187197203025465 -0.9066471011120146 -0.13425902748295723 0.10338227688584191 -0.040063328350356045 -0.0352017811260408 -92.67759375347407 76.85946986218234 17.196968329988064 27.280776167744335 -41.91869801197123 -87.16564475365213 20.498814963461044 -73.47168920366684 27.98529652025281 0.05092653078184976 0.2120746523253985 0.10521426168728626 -0.24389250160452108 -0.07681913759513341 0.25501589155471 -0.09407838529752094 -0.3676113198985322 0.15924836845893314 -7.5192169459363445 5.359278050172886 -0.22004030708407296 -0.24104212492565727 0.05033587950120233 -0.2905463488541312 -2.8234742712704493 0.9743188011395026 0.1818980094584227 -0.14973039312881462 -0.07986252047890299 0.036281644705990386 -9.937398464028815 0.831745165600392 0.006461999285066751 -0.14276397370137184 -0.2512283115360999 -0.40412126901361556 -1.9034488572867894 -0.37145140699638673 0.20408130328407373 0.07550379257137704 0.02862964504060759 -0.014238809985360958 -56.18200447079044 -49.304594787950805 -59.17496262923876 -1.9480032484598404 69.26866399600779 1.985092883200302 0.40390195590823463 -1.2872870335327726 3.6202158379524367 -0.21459792697604219 0.3592522622519208 0.09328288170262602 32.96256465146782 -20.985862092796314 31.658179520008392 2.0661539951568364 70.69969107996302 -5.539993329667199 8.355703383398636 -21.301283643762087 24.272468866683703
